<?xml version="1.0" encoding="us-ascii" standalone="no"?><svg xmlns="http://www.w3.org/2000/svg" xmlns:xlink="http://www.w3.org/1999/xlink" contentStyleType="text/css" height="613px" preserveAspectRatio="none" style="width:504px;height:613px;background:#FFFFFF;" version="1.1" viewBox="0 0 504 613" width="504px" zoomAndPan="magnify"><defs/><g><!--cluster wasm--><g id="cluster_wasm"><rect fill="#808080" height="363" rx="2.5" ry="2.5" style="stroke:#181818;stroke-width:1.0;" width="491" x="7" y="244"/><path d="M139,244 L139,253.2969 L129,263.2969 L7,263.2969 " fill="none" style="stroke:#181818;stroke-width:1.0;"/><text fill="#000000" font-family="sans-serif" font-size="14" font-weight="bold" lengthAdjust="spacing" textLength="122" x="10" y="257.9951">WASM Machine</text></g><!--cluster wasm_code--><g id="cluster_wasm_code"><rect fill="#FFFFFF" height="180" rx="2.5" ry="2.5" style="stroke:#181818;stroke-width:1.0;" width="427" x="39" y="395"/><rect fill="#FFFFFF" height="10" style="stroke:#181818;stroke-width:1.0;" width="15" x="446" y="400"/><rect fill="#FFFFFF" height="2" style="stroke:#181818;stroke-width:1.0;" width="4" x="444" y="402"/><rect fill="#FFFFFF" height="2" style="stroke:#181818;stroke-width:1.0;" width="4" x="444" y="406"/><text fill="#000000" font-family="sans-serif" font-size="14" font-weight="bold" lengthAdjust="spacing" textLength="39" x="233" y="420.9951">Code</text></g><!--cluster core--><g id="cluster_core"><rect fill="#808080" height="180" rx="2.5" ry="2.5" style="stroke:#181818;stroke-width:1.0;" width="205" x="143" y="7"/><path d="M195,7 L195,16.2969 L185,26.2969 L143,26.2969 " fill="none" style="stroke:#181818;stroke-width:1.0;"/><text fill="#000000" font-family="sans-serif" font-size="14" font-weight="bold" lengthAdjust="spacing" textLength="42" x="146" y="20.9951">CORE</text></g><!--entity wasm_heap--><g id="elem_wasm_heap"><path d="M23.5,289 C23.5,279 52,279 52,279 C52,279 80.5,279 80.5,289 L80.5,314.2969 C80.5,324.2969 52,324.2969 52,324.2969 C52,324.2969 23.5,324.2969 23.5,314.2969 L23.5,289 " fill="#F1F1F1" style="stroke:#181818;stroke-width:0.5;"/><path d="M23.5,289 C23.5,299 52,299 52,299 C52,299 80.5,299 80.5,289 " fill="none" style="stroke:#181818;stroke-width:0.5;"/><text fill="#000000" font-family="sans-serif" font-size="14" lengthAdjust="spacing" textLength="37" x="33.5" y="315.9951">Heap</text></g><!--class wasm_exp--><g id="elem_wasm_exp"><rect codeLine="5" fill="#F1F1F1" height="96.8906" id="wasm_exp" rx="2.5" ry="2.5" style="stroke:#181818;stroke-width:0.5;" width="95" x="82.5" y="446"/><ellipse cx="102" cy="462" fill="#B4A7E5" rx="11" ry="11" style="stroke:#181818;stroke-width:1.0;"/><path d="M102.9531,458.7813 L104.6719,458.7813 C105.0625,458.7813 105.25,458.75 105.375,458.6719 C105.6406,458.5156 105.7813,458.2344 105.7813,457.9375 C105.7813,457.6719 105.6719,457.4063 105.4375,457.2344 C105.2656,457.125 105.125,457.0938 104.6719,457.0938 L99.5313,457.0938 C99.0938,457.0938 98.9688,457.1094 98.8125,457.2031 C98.5625,457.3594 98.4063,457.6563 98.4063,457.9375 C98.4063,458.2188 98.5469,458.4688 98.7656,458.6406 C98.9219,458.75 99.1094,458.7813 99.5313,458.7813 L101.25,458.7813 L101.25,465.2969 L99.5313,465.2969 C99.0938,465.2969 98.9688,465.3125 98.8125,465.4219 C98.5625,465.5781 98.4063,465.8594 98.4063,466.1563 C98.4063,466.4063 98.5469,466.6719 98.7656,466.8281 C98.9219,466.9531 99.125,467 99.5313,467 L104.6719,467 C105.4219,467 105.7813,466.7188 105.7813,466.1563 C105.7813,465.875 105.6719,465.625 105.4375,465.4531 C105.2656,465.3281 105.125,465.2969 104.6719,465.2969 L102.9531,465.2969 L102.9531,458.7813 Z " fill="#000000"/><text fill="#000000" font-family="sans-serif" font-size="14" font-style="italic" lengthAdjust="spacing" textLength="53" x="117" y="466.8467">Exports</text><line style="stroke:#181818;stroke-width:0.5;" x1="83.5" x2="176.5" y1="478" y2="478"/><line style="stroke:#181818;stroke-width:0.5;" x1="83.5" x2="176.5" y1="486" y2="486"/><text fill="#000000" font-family="sans-serif" font-size="14" lengthAdjust="spacing" textLength="43" x="88.5" y="502.9951">alloc()</text><text fill="#000000" font-family="sans-serif" font-size="14" lengthAdjust="spacing" textLength="33" x="88.5" y="519.292">run()</text><text fill="#000000" font-family="sans-serif" font-size="14" lengthAdjust="spacing" textLength="83" x="88.5" y="535.5889">is_callable()</text></g><!--class wasm_imp--><g id="elem_wasm_imp"><rect codeLine="9" fill="#F1F1F1" height="113.1875" id="wasm_imp" rx="2.5" ry="2.5" style="stroke:#181818;stroke-width:0.5;" width="229" x="212.5" y="438"/><ellipse cx="227.5" cy="454" fill="#B4A7E5" rx="11" ry="11" style="stroke:#181818;stroke-width:1.0;"/><path d="M228.4531,450.7813 L230.1719,450.7813 C230.5625,450.7813 230.75,450.75 230.875,450.6719 C231.1406,450.5156 231.2813,450.2344 231.2813,449.9375 C231.2813,449.6719 231.1719,449.4063 230.9375,449.2344 C230.7656,449.125 230.625,449.0938 230.1719,449.0938 L225.0313,449.0938 C224.5938,449.0938 224.4688,449.1094 224.3125,449.2031 C224.0625,449.3594 223.9063,449.6563 223.9063,449.9375 C223.9063,450.2188 224.0469,450.4688 224.2656,450.6406 C224.4219,450.75 224.6094,450.7813 225.0313,450.7813 L226.75,450.7813 L226.75,457.2969 L225.0313,457.2969 C224.5938,457.2969 224.4688,457.3125 224.3125,457.4219 C224.0625,457.5781 223.9063,457.8594 223.9063,458.1563 C223.9063,458.4063 224.0469,458.6719 224.2656,458.8281 C224.4219,458.9531 224.625,459 225.0313,459 L230.1719,459 C230.9219,459 231.2813,458.7188 231.2813,458.1563 C231.2813,457.875 231.1719,457.625 230.9375,457.4531 C230.7656,457.3281 230.625,457.2969 230.1719,457.2969 L228.4531,457.2969 L228.4531,450.7813 Z " fill="#000000"/><text fill="#000000" font-family="sans-serif" font-size="14" font-style="italic" lengthAdjust="spacing" textLength="197" x="241.5" y="458.8467">Imports (externally defined)</text><line style="stroke:#181818;stroke-width:0.5;" x1="213.5" x2="440.5" y1="470" y2="470"/><line style="stroke:#181818;stroke-width:0.5;" x1="213.5" x2="440.5" y1="478" y2="478"/><text fill="#000000" font-family="sans-serif" font-size="14" lengthAdjust="spacing" textLength="109" x="218.5" y="494.9951">hf_store_data()</text><text fill="#000000" font-family="sans-serif" font-size="14" lengthAdjust="spacing" textLength="101" x="218.5" y="511.292">hf_load_data()</text><text fill="#000000" font-family="sans-serif" font-size="14" lengthAdjust="spacing" textLength="126" x="218.5" y="527.5889">hf_remove_data()</text><text fill="#000000" font-family="sans-serif" font-size="14" lengthAdjust="spacing" textLength="25" x="218.5" y="543.8857">...()</text></g><!--class hf--><g id="elem_hf"><rect codeLine="17" fill="#F1F1F1" height="113.1875" id="hf" rx="2.5" ry="2.5" style="stroke:#181818;stroke-width:0.5;" width="138" x="186" y="50"/><ellipse cx="203.25" cy="66" fill="#B4A7E5" rx="11" ry="11" style="stroke:#181818;stroke-width:1.0;"/><path d="M204.2031,62.7813 L205.9219,62.7813 C206.3125,62.7813 206.5,62.75 206.625,62.6719 C206.8906,62.5156 207.0313,62.2344 207.0313,61.9375 C207.0313,61.6719 206.9219,61.4063 206.6875,61.2344 C206.5156,61.125 206.375,61.0938 205.9219,61.0938 L200.7813,61.0938 C200.3438,61.0938 200.2188,61.1094 200.0625,61.2031 C199.8125,61.3594 199.6563,61.6563 199.6563,61.9375 C199.6563,62.2188 199.7969,62.4688 200.0156,62.6406 C200.1719,62.75 200.3594,62.7813 200.7813,62.7813 L202.5,62.7813 L202.5,69.2969 L200.7813,69.2969 C200.3438,69.2969 200.2188,69.3125 200.0625,69.4219 C199.8125,69.5781 199.6563,69.8594 199.6563,70.1563 C199.6563,70.4063 199.7969,70.6719 200.0156,70.8281 C200.1719,70.9531 200.375,71 200.7813,71 L205.9219,71 C206.6719,71 207.0313,70.7188 207.0313,70.1563 C207.0313,69.875 206.9219,69.625 206.6875,69.4531 C206.5156,69.3281 206.375,69.2969 205.9219,69.2969 L204.2031,69.2969 L204.2031,62.7813 Z " fill="#000000"/><text fill="#000000" font-family="sans-serif" font-size="14" font-style="italic" lengthAdjust="spacing" textLength="101" x="217.75" y="70.8467">Host functions</text><line style="stroke:#181818;stroke-width:0.5;" x1="187" x2="323" y1="82" y2="82"/><line style="stroke:#181818;stroke-width:0.5;" x1="187" x2="323" y1="90" y2="90"/><text fill="#000000" font-family="sans-serif" font-size="14" lengthAdjust="spacing" textLength="109" x="192" y="106.9951">hf_store_data()</text><text fill="#000000" font-family="sans-serif" font-size="14" lengthAdjust="spacing" textLength="101" x="192" y="123.292">hf_load_data()</text><text fill="#000000" font-family="sans-serif" font-size="14" lengthAdjust="spacing" textLength="126" x="192" y="139.5889">hf_remove_data()</text><text fill="#000000" font-family="sans-serif" font-size="14" lengthAdjust="spacing" textLength="25" x="192" y="155.8857">...()</text></g><!--link core to wasm_heap--><g id="link_core_wasm_heap"><path codeLine="23" d="M142.9286,113.4511 C142.8373,113.521 142.7453,113.5915 142.6527,113.6626 C142.2823,113.9469 141.9015,114.2404 141.5107,114.5429 C140.7292,115.148 139.9078,115.7893 139.0499,116.4658 C132.1862,121.8778 122.9809,129.5401 113.0986,138.8996 C93.3341,157.6188 70.8618,183.127 59,211 C50.5206,230.925 49.1833,255.585 49.7333,273.971 " fill="none" id="core-wasm_heap" style="stroke:#181818;stroke-width:1.0;"/><polygon fill="#181818" points="142.9286,113.4511,133.3511,115.7472,138.9589,116.491,138.215,122.0988,142.9286,113.4511" style="stroke:#181818;stroke-width:1.0;"/><polygon fill="#181818" points="49.9342,278.981,53.571,269.8282,49.7342,273.985,45.5774,270.1482,49.9342,278.981" style="stroke:#181818;stroke-width:1.0;"/><text fill="#000000" font-family="sans-serif" font-size="13" lengthAdjust="spacing" textLength="64" x="60" y="224.0669">rw access</text></g><!--link core to wasm_exp--><g id="link_core_wasm_exp"><path codeLine="24" d="M146.6586,187.3002 C145.8334,202.4687 144.9297,219.0801 143.9834,236.474 C140.1983,306.0495 135.732,388.1445 132.884,440.495 " fill="none" id="core-to-wasm_exp" style="stroke:#181818;stroke-width:1.0;"/><polygon fill="#181818" points="132.601,445.694,137.0837,436.9244,132.8724,440.7014,129.0954,436.4901,132.601,445.694" style="stroke:#181818;stroke-width:1.0;"/><text fill="#000000" font-family="sans-serif" font-size="13" lengthAdjust="spacing" textLength="120" x="145" y="306.0669">core to wasm calls</text></g><!--link wasm_heap to wasm_code--><g id="link_wasm_heap_wasm_code"><path codeLine="25" d="M51.3023,329.153 C50.9641,342.0713 50.532,358.5773 50.0727,376.1246 C49.9578,380.5114 49.8413,384.9633 49.7241,389.4405 C49.6948,390.5598 49.6655,391.6807 49.6361,392.8026 C49.6214,393.3635 49.6067,393.9246 49.592,394.486 " fill="none" id="wasm_heap-wasm_code" style="stroke:#181818;stroke-width:1.0;"/><polygon fill="#181818" points="51.4362,324.039,47.201,332.9307,51.3048,329.0373,55.1982,333.141,51.4362,324.039" style="stroke:#181818;stroke-width:1.0;"/><polygon fill="#181818" points="49.592,394.486,53.8262,385.5937,49.7229,389.4877,45.8289,385.3844,49.592,394.486" style="stroke:#181818;stroke-width:1.0;"/><text fill="#000000" font-family="sans-serif" font-size="13" lengthAdjust="spacing" textLength="64" x="52" y="367.0669">rw access</text></g><!--reverse link hf to wasm_imp--><g id="link_hf_wasm_imp"><path codeLine="26" d="M266.37,168.457 C280.175,242.469 303.263,366.245 316.611,437.801 " fill="none" id="hf-backto-wasm_imp" style="stroke:#181818;stroke-width:1.0;"/><polygon fill="#181818" points="265.393,163.215,263.1115,172.796,266.31,168.1302,270.9758,171.3287,265.393,163.215" style="stroke:#181818;stroke-width:1.0;"/><text fill="#000000" font-family="sans-serif" font-size="13" lengthAdjust="spacing" textLength="120" x="295" y="306.0669">wasm to core calls</text></g><!--SRC=[VL91Ri8m4Bpd5Ikum04UK5MLAeG41rIfFVGOBSwQM8hjo3PDKCNVkx4X2ONMjvqPpuvtZLLb6wrQPGwPTAW99f-l7plOeIYLeGcWXmQzXkd1uGc-Cm0eCE0UFKitX7KloKkkEbvONLj39i1aPOl18nTSmRGfLQ3an4UPG4wYOBTrMriN_A2djhwehYKy0N9YCPlV4-ve7i7AvuBluBwYdXurtUhO56RKCcPOUOA29B-zc0z9bBv9mYKxbpBtmJhAku7Sjku5bSNYFzwHjbz_EooNomIVi_DbFwktztMNIt3dyLP6RzfO7q0UZGZAcZJFKdQQKZwEVSL_fRt2To4ZaRATinZaUR5u6Nv1juq6K0ZoFl4zdPOIiM3Jr-hMuxFXyk0LFypOYnipEvvGT62dw1YTVW00]--></g></svg>